# xmcd
#
# Track frame offsets: 
#        150
#        11298
#        23651
#        37705
#        51428
#        65199
#        82721
#        103634
#        116843
#        126096
#        138351
#
# Disc length: 2041 seconds
#
# Revision: 0
# Processed by: cddbd v1.5.2PL0 Copyright (c) Steve Scherf et al.
# Submitted via: ExactAudioCopy v0.99pb3
#
DISCID=8607f70b
DTITLE=Rene Miller - SOLO
DYEAR=2010
DGENRE=Blues
TTITLE0=Baby Doll
TTITLE1=How do You Know When It's Over ?
TTITLE2=Cinderella
TTITLE3=Get Ready
TTITLE4=When I'm The Valley
TTITLE5=Bluer Than Blue Serenade
TTITLE6=Get Back Home
TTITLE7=Standing In The Shadow Of Love
TTITLE8=Little Miss Lonely
TTITLE9=Sin Was The Cause Of It All
TTITLE10=Good Brave Men
EXTD=
EXTT0=
EXTT1=
EXTT2=
EXTT3=
EXTT4=
EXTT5=
EXTT6=
EXTT7=
EXTT8=
EXTT9=
EXTT10=
PLAYORDER=
